<svg  version="1.1" xmlns="http://www.w3.org/2000/svg">
  <symbol id="minus-square" viewBox="0 0 1024 1024">
    <path d="M51.2 153.303146 51.2 153.303146 51.2 870.696852C51.2 927.00159 96.969249 972.8 153.303146 972.8L870.696852 972.8C927.00159 972.8 972.8 927.030753 972.8 870.696852L972.8 153.303146C972.8 96.998412 927.030753 51.2 870.696852 51.2L153.303146 51.2C96.998412 51.2 51.2 96.969249 51.2 153.303146L51.2 153.303146ZM0 153.303146C0 68.636156 68.777573 0 153.303146 0L870.696852 0C955.363845 0 1024 68.777573 1024 153.303146L1024 870.696852C1024 955.363845 955.222426 1024 870.696852 1024L153.303146 1024C68.636156 1024 0 955.222426 0 870.696852L0 153.303146 0 153.303146Z" p-id="2009"></path>
    <path d="M339.2 460.8C321.536 460.8 307.2 475.2 307.2 492.8 307.2 510.4 321.536 524.8 339.2 524.8L723.2 524.8C740.864 524.8 755.2 510.4 755.2 492.8 755.2 475.2 740.864 460.8 723.2 460.8L339.2 460.8Z" p-id="2010"></path>
  </symbol>

  <symbol id="plus-square" viewBox="0 0 1024 1024">
    <path d="M960 1022.6c35.3 0 64-28.699 64-64l0-894c0-35.4-28.7-64-64-64L64 0.6c-35.3 0-64 28.7-64 64l0 894c0 35.301 28.7 64 64 64L960 1022.6zM960 958.6 64 958.6l0-894 896 0L960 958.6z" p-id="6344"></path><path d="M799.984 480.003 543.997 480.003 543.997 224.016c0-17.698-14.299-31.997-31.996-31.997-17.699 0-31.998 14.299-31.998 31.997l0 255.987L224.016 480.003c-17.698 0-31.997 14.299-31.997 31.996 0 17.699 14.299 31.998 31.997 31.998l255.987 0 0 255.987c0 17.698 14.299 31.997 31.998 31.997 17.697 0 31.996-14.299 31.996-31.997L543.997 543.997l255.987 0c17.698 0 31.997-14.299 31.997-31.998C831.981 494.302 817.683 480.003 799.984 480.003z" p-id="6345"></path>
  </symbol>

  <symbol id="expand" viewBox="0 0 1024 1024">
    <path d="M256 256l0 512 128 0L192 960 0 768l128 0L128 256 0 256 192 64l192 192L256 256zM448 832l576 0L1024 704 448 704 448 832zM448 576l576 0L1024 448 448 448 448 576zM448 192l0 128 576 0L1024 192 448 192z" p-id="10893"></path>
  </symbol>

  <symbol id="collapse" viewBox="0 0 1024 1024">
    <path d="M256 256l128 0L192 448 0 256l128 0L128 64l128 0L256 256zM448 832l576 0L1024 704 448 704 448 832zM0 768l128 0 0 192 128 0L256 768l128 0L192 576 0 768zM448 576l576 0L1024 448 448 448 448 576zM448 192l0 128 576 0L1024 192 448 192z" p-id="8607"></path>
  </symbol>

  <symbol id="github" viewBox="0 0 1024 1024">
    <path d="M941.714 512q0 143.433-83.712 258.011t-216.283 158.574q-15.433 2.853-22.565-3.986t-7.131-17.152v-120.576q0-55.442-29.696-81.152 32.585-3.438 58.587-10.277t53.723-22.272 46.299-37.998 30.281-60.014 11.703-86.016q0-69.157-45.129-117.723 21.138-52.005-4.571-116.553-16.018-5.157-46.299 6.29t-52.553 25.161l-21.723 13.714q-53.138-14.848-109.714-14.848t-109.714 14.848q-9.143-6.29-24.283-15.433t-47.726-22.016-49.152-7.717q-25.161 64.585-3.986 116.553-45.129 48.567-45.129 117.723 0 48.567 11.703 85.723t29.989 60.014 46.007 38.29 53.723 22.272 58.587 10.277q-22.857 20.553-28.014 58.843-11.995 5.705-25.71 8.558t-32.585 2.853-37.413-12.288-31.707-35.73q-10.862-18.286-27.721-29.696t-28.27-13.714l-11.447-1.719q-11.995 0-16.567 2.56t-2.853 6.583 5.157 8.009 7.424 6.839l3.986 2.853q12.581 5.705 24.869 21.723t17.993 29.147l5.705 13.129q7.424 21.723 25.161 35.145t38.29 17.152 39.717 3.986 31.707-2.011l13.129-2.304q0 21.723 0.293 50.871t0.293 30.866q0 10.277-7.424 17.152t-22.857 3.986q-132.571-43.995-216.283-158.574t-83.712-258.011q0-119.442 58.843-220.27t159.707-159.707 220.27-58.843 220.27 58.843 159.707 159.707 58.843 220.27z" p-id="12243"></path>
  </symbol>

  <symbol id="database" viewBox="0 0 1024 1024">
    <path d="M512 1024c-212.032 0-384-85.952-384-192l0 0 0-108.032C128 830.08 299.968 896 512 896s384-65.92 384-172.032L896 832l0 0C896 938.048 724.032 1024 512 1024zM512 832c-212.032 0-384-85.952-384-192L128 531.968C128 638.08 299.968 704 512 704s384-65.92 384-172.032L896 640C896 746.048 724.032 832 512 832zM512 640c-212.032 0-384-85.952-384-192L128 339.968C128 446.08 299.968 512 512 512s384-65.92 384-172.032L896 448C896 554.048 724.032 640 512 640zM512 448C299.968 448 128 362.048 128 256L128 192c0-106.048 171.968-192 384-192s384 85.952 384 192l0 64C896 362.048 724.032 448 512 448z" p-id="5354"></path>
  </symbol>

  <symbol id="clear" viewBox="0 0 1024 1024">
    <path d="M204.21559 574.738903l27.238364 0 4.136204 0 594.510202 0 11.30344 0 11.79872 0c21.462824 0 31.564903-15.896038 22.414499-35.320437l-76.54842-162.779364c-9.149381-19.423375-34.195823-35.320437-55.658647-35.320437L609.165482 341.318666 609.165482 219.938178 609.165482 102.82897c0-21.482267-17.574261-39.037085-39.036062-39.037085l-78.073146 0c-21.462824 0-39.037085 17.554818-39.037085 39.037085l0 117.110231 0 121.380488L314.007135 341.319689c-21.481244 0-46.508243 15.897062-55.639205 35.320437L181.781648 539.418466C172.65171 558.841841 182.734346 574.738903 204.21559 574.738903zM834.942645 632.531144 236.848824 632.531144c3.25923 60.175521 1.849114 132.6256-48.090275 175.608553-69.934792 60.175521-46.356794 126.030391 3.25923 152.067394l101.537558 0c9.987468-13.628392 65.036225-91.625814 81.237209-170.443927 2.51631-16.353456 4.060479-27.181059 4.060479-27.181059-0.705058 8.996908-2.211365 18.088984-4.060479 27.181059-7.757684 50.130747-25.007557 153.440671-37.606503 170.443927l73.479525 0c9.988492-13.628392 65.036225-91.625814 81.238232-170.443927 2.515287-16.353456 4.059456-27.181059 4.059456-27.181059-0.705058 8.996908-2.211365 18.088984-4.059456 27.181059-7.758708 50.130747-25.007557 153.440671-37.607526 170.443927l92.597955 0c9.968026-13.628392 65.036225-91.625814 81.217766-170.443927 2.535753-16.353456 4.078899-27.181059 4.078899-27.181059-0.685615 8.996908-2.210341 18.088984-4.078899 27.181059-7.739265 50.130747-24.968671 153.440671-37.58706 170.443927l92.998067 0c9.969049-13.628392 65.036225-91.625814 81.21879-170.443927 2.535753-16.353456 4.078899-27.181059 4.078899-27.181059-0.686638 8.996908-2.211365 18.088984-4.078899 27.181059-7.739265 50.130747-24.989137 153.440671-37.607526 170.443927l93.53121 0c0 0 61.701271-22.13002 52.055586-93.513814C858.958618 764.910127 853.469604 708.336644 834.942645 632.531144z" p-id="2020"></path>
  </symbol>

  <symbol id="beauty" viewBox="0 0 1024 1024">
    <path d="M317.97248 175.377067 439.534933 243.582293 371.459413 121.787733 439.534933 0 317.97248 68.205227 196.410027 0 264.485547 121.787733 196.410027 243.582293Z" p-id="3403"></path><path d="M901.481813 652.8 779.91936 584.594773 847.99488 706.389333 779.91936 828.177067 901.481813 759.978667 1023.044267 828.177067 954.968747 706.389333 1023.044267 584.594773Z" p-id="3404"></path><path d="M1023.044267 0 901.481813 68.205227 779.91936 0 847.99488 121.787733 779.91936 243.582293 901.481813 175.377067 1023.044267 243.582293 954.968747 121.787733Z" p-id="3405"></path><path d="M653.491248 258.197015C634.040969 238.710447 604.86555 238.710447 585.41527 258.197015L16.492693 828.179108C-2.957587 847.665671-2.957587 876.895526 16.492693 896.382089L128.331799 1008.427943C147.782078 1027.914506 176.957497 1027.914506 196.407777 1008.427943L765.330357 438.447761C784.780636 418.961194 784.780636 389.731343 765.330357 370.244776L653.491248 258.197015 653.491248 258.197015ZM600.00298 526.137313 497.889013 423.832836 614.590689 306.913433 716.704659 409.217911 600.00298 526.137313 600.00298 526.137313Z" p-id="3406"></path>
  </symbol>
  
  <symbol id="diff" viewBox="0 0 1024 1024">
    <path d="M512 0c-282.784 0-512 229.216-512 512s229.216 512 512 512 512-229.216 512-512-229.216-512-512-512zM128 512c0-212.064 171.936-384 384-384l0 768c-212.064 0-384-171.936-384-384z" p-id="2033"></path>
  </symbol> 

  <symbol id="split" viewBox="0 0 1024 1024">
    <path d="M870.79936 351.26784H153.21088V129.19296h50.3808v171.69408H820.4288V129.19296h50.37056v222.07488zM870.79936 894.8224h-50.37056v-171.76576H203.5968v171.76576h-50.3808v-222.1312h717.58848v222.1312zM154.112 486.8096h715.84256v50.38592H154.112V486.8096z" p-id="4649"></path>
  </symbol> 

  <symbol id="tree" viewBox="0 0 1024 1024">
    <path d="M778.864954 272.76329l195.391109 0c11.138688 0 20.22974-9.057283 20.22974-20.091594L994.485803 51.036373c0-11.070126-9.091052-20.161179-20.22974-20.161179L778.864954 30.875195c-11.137665 0-20.125363 9.091052-20.125363 20.161179l0 80.640622L484.546741 131.676995c-18.321274 0-33.242102 14.887059-33.242102 33.172517l0 329.711304L310.253136 494.560816 310.253136 353.403912c0-11.103896-9.021467-20.159132-20.159132-20.159132L48.795333 333.24478c-11.137665 0-20.159132 9.055237-20.159132 20.159132l0 322.494948c0 11.137665 9.021467 20.159132 20.159132 20.159132l241.262856 0c11.172457 0 20.194948-9.021467 20.194948-20.159132L310.253136 534.775726l141.051503 0 0 329.641719c0 18.35709 14.920828 33.242102 33.242102 33.242102l274.191826 0 0 80.57206c0 11.17348 9.021467 20.160155 20.125363 20.160155l195.391109 0c11.138688 0 20.22974-8.986675 20.22974-20.160155L994.484779 776.699638c0-11.138688-9.091052-20.161179-20.22974-20.161179L778.864954 756.538459c-11.137665 0-20.125363 9.021467-20.125363 20.161179l0 80.604806L491.660766 857.304444 491.660766 534.775726l267.078825 0 0 80.641645c0 11.137665 9.021467 20.159132 20.125363 20.159132l195.391109 0c11.138688 0 20.22974-9.021467 20.22974-20.159132L994.485803 413.849586c0-11.06808-9.091052-20.125363-20.22974-20.125363L778.864954 393.724223c-11.137665 0.034792-20.125363 9.057283-20.125363 20.125363l0 80.71123L491.660766 494.560816 491.660766 171.996283l267.078825 0 0 80.675414C758.739591 263.706007 767.761058 272.76329 778.864954 272.76329z" p-id="4460"></path>
  </symbol> 

  <symbol id="save" viewBox="0 0 1024 1024">
    <path d="M960 904.32c0 30.72-24.96 56.32-56.32 56.32L120.32 960.64c-30.72 0-56.32-24.96-56.32-56.32L64 120.32c0-30.72 24.96-56.32 56.32-56.32l541.44 0c30.72 0 73.6 17.28 95.36 39.68l163.2 163.2c22.4 22.4 39.68 64.64 39.68 95.36L960 904.32zM885.12 885.12 885.12 362.88c0-10.88-9.6-35.2-17.28-42.88L704 156.16c-8.32-8.32-30.72-17.28-42.88-17.28l0 242.56c0 30.72-24.96 56.32-56.32 56.32L269.44 437.76c-30.72 0-56.32-24.96-56.32-56.32L213.12 138.88 138.88 138.88l0 746.88 74.88 0 0-242.56c0-30.72 24.96-56.32 56.32-56.32l485.12 0c30.72 0 56.32 24.96 56.32 56.32l0 242.56L885.12 885.76zM736 885.12l0-224L288 661.12l0 224L736 885.12zM586.88 157.44c0-9.6-8.96-18.56-18.56-18.56L456.32 138.88c-9.6 0-18.56 8.96-18.56 18.56l0 186.88c0 9.6 8.96 18.56 18.56 18.56l112 0c9.6 0 18.56-8.96 18.56-18.56L586.88 157.44z" p-id="3380"></path>
  </symbol>

  <symbol id="record" viewBox="0 0 1024 1024">
    <path d="M864.067412 421.209859 981.12864 507.004454 860.291244 595.566614 981.12864 684.128776 523.475992 1019.544045 41.513514 684.128776 168.769616 595.566614 41.513514 507.004454 164.792862 421.209859 41.513514 335.415264 523.475992 0 981.12864 335.415264 864.067412 421.209859ZM214.905441 456.08503 141.145946 507.416952 520.305566 771.287959 880.340654 507.416952 813.392005 458.350046 523.475992 670.830531 214.905441 456.08503ZM218.882194 630.441785 141.145946 684.541277 520.305566 948.412283 880.340654 684.541277 809.615836 632.706801 523.475992 842.41972 218.882194 630.441785Z" p-id="8182"></path>
  </symbol>

  <symbol id="trash" viewBox="0 0 1024 1024">
    <path d="M402.285706 786.285714l0-402.285714q0-7.972571-5.12-13.165714t-13.165714-5.12l-36.571429 0q-7.972571 0-13.165714 5.12t-5.12 13.165714l0 402.285714q0 7.972571 5.12 13.165714t13.165714 5.12l36.571429 0q7.972571 0 13.165714-5.12t5.12-13.165714zM548.57142 786.285714l0-402.285714q0-7.972571-5.12-13.165714t-13.165714-5.12l-36.571429 0q-7.972571 0-13.165714 5.12t-5.12 13.165714l0 402.285714q0 7.972571 5.12 13.165714t13.165714 5.12l36.571429 0q7.972571 0 13.165714-5.12t5.12-13.165714zM694.857135 786.285714l0-402.285714q0-7.972571-5.12-13.165714t-13.165714-5.12l-36.571429 0q-7.972571 0-13.165714 5.12t-5.12 13.165714l0 402.285714q0 7.972571 5.12 13.165714t13.165714 5.12l36.571429 0q7.972571 0 13.165714-5.12t5.12-13.165714zM383.999992 219.428571l256 0-27.428571-66.852571q-4.022857-5.12-9.728-6.290286l-181.174857 0q-5.705143 1.170286-9.728 6.290286zM914.285706 237.714286l0 36.571429q0 7.972571-5.12 13.165714t-13.165714 5.12l-54.857143 0 0 541.696q0 47.396571-26.843429 81.993143t-64.585143 34.596571l-475.428571 0q-37.741714 0-64.585143-33.426286t-26.843429-80.822857l0-544.036571-54.857143 0q-7.972571 0-13.165714-5.12t-5.12-13.165714l0-36.571429q0-7.972571 5.12-13.165714t13.165714-5.12l176.566857 0 40.009143-95.451429q8.557714-21.138286 30.866286-35.986286t45.129143-14.848l182.857143 0q22.820571 0 45.129143 14.848t30.866286 35.986286l40.009143 95.451429 176.566857 0q7.972571 0 13.165714 5.12t5.12 13.165714z" p-id="3164"></path>
  </symbol>

  <symbol id="close" viewBox="0 0 1024 1024">
    <path d="M835.3792 236.4416 774.7584 172.8512 512 448.4096 512 448.4096 512 448.4096 512 448.4096 249.2416 172.8512 188.6208 236.4416 451.3792 512 188.6208 787.5584 249.2416 851.1488 512 575.5904 512 575.5904 512 575.5904 512 575.5904 774.7584 851.1488 835.3792 787.5584 572.6208 512Z" p-id="996"></path>
  </symbol>

  <symbol id="export-txt" viewBox="0 0 1024 1024">
    <path d="M887.432113 657.555074l-30.613228 166.897148L168.818405 824.452221l-30.609135-166.897148L61.683363 657.555074l0 266.018679 903.003252 0 0-266.018679L887.432113 657.555074 887.432113 657.555074zM868.481506 360.195595 641.822253 360.195595l0-96.198969L383.818107 263.996626l0 96.92961-223.7459 0 352.019379 376.071168L868.481506 360.195595 868.481506 360.195595zM641.822253 97.826026 383.818107 97.826026l0 34.982746 258.004145 0L641.822253 97.826026 641.822253 97.826026zM641.822253 163.420977 383.818107 163.420977l0 67.048045 258.004145 0L641.822253 163.420977 641.822253 163.420977zM641.822253 163.420977" p-id="5565"></path>
  </symbol>
  <symbol id="theme" viewBox="0 0 1024 1024">
    <path d="M304.778403 918.511746c-28.330667 0-51.313778-22.999365-51.313778-51.305651L253.464625 475.834921l-43.219302 44.617143c-9.29727 9.597968-22.779937 15.083683-37.02654 15.083683-13.734603 0-26.298921-4.908698-35.514921-13.775238L15.587799 403.781079c-9.858032-9.451683-15.384381-22.25981-15.587556-36.018794-0.251937-13.693968 4.827429-26.640254 14.336-36.522667l191.934984-198.647873c26.160762-27.095365 36.408889-27.095365 41.894603-27.095365L369.022212 105.496381c31.085714 0 37.774222 2.039873 44.511492 9.061587l7.054222 7.257397-0.357587 10.256254c0 23.28381 8.809651 43.43873 25.461841 58.181079 16.505905 14.612317 40.090413 22.658032 66.348698 22.658032 54.044444 0 91.769905-33.19873 91.769905-80.765968l0-9.451683 6.639746-8.045714 0.032508-0.097524c6.81854-7.021714 13.442032-9.061587 44.535873-9.061587l120.888889 0c5.493841 0 15.79073 0 41.90273 27.119746l191.934984 198.623492c9.45981 9.833651 14.60419 22.812444 14.352254 36.522667-0.26819 13.783365-5.79454 26.567111-15.60381 36.067556l-122.107937 117.914413c-9.557333 9.248508-22.17854 14.360381-35.620571 14.360381-13.889016 0-27.314794-5.672635-36.872127-15.595683l-43.162413-44.665905-0.097524 391.354921c0 28.306286-23.064381 51.305651-51.313778 51.305651L304.778403 918.495492 304.778403 918.511746 304.778403 918.511746 304.778403 918.511746z" p-id="3895"></path>
  </symbol>
  <symbol id="share" viewBox="0 0 1024 1024">
    <path d="M819.2 307.2 819.2 307.2C875.753958 307.2 921.6 261.353958 921.6 204.8 921.6 148.246042 875.753958 102.4 819.2 102.4 762.646042 102.4 716.8 148.246042 716.8 204.8 716.8 261.353958 762.646042 307.2 819.2 307.2L819.2 307.2ZM819.2 409.6C706.092083 409.6 614.4 317.907917 614.4 204.8 614.4 91.692083 706.092083 0 819.2 0 932.307917 0 1024 91.692083 1024 204.8 1024 317.907917 932.307917 409.6 819.2 409.6ZM819.2 921.6C875.753958 921.6 921.6 875.753958 921.6 819.2 921.6 762.646042 875.753958 716.8 819.2 716.8 762.646042 716.8 716.8 762.646042 716.8 819.2 716.8 875.753958 762.646042 921.6 819.2 921.6ZM819.2 1024C706.092083 1024 614.4 932.307917 614.4 819.2 614.4 706.092083 706.092083 614.4 819.2 614.4 932.307917 614.4 1024 706.092083 1024 819.2 1024 932.307917 932.307917 1024 819.2 1024ZM204.8 614.4C261.353958 614.4 307.2 568.553958 307.2 512 307.2 455.446042 261.353958 409.6 204.8 409.6 148.246042 409.6 102.4 455.446042 102.4 512 102.4 568.553958 148.246042 614.4 204.8 614.4ZM345.486623 660.83051C308.796153 695.525438 259.282547 716.8 204.8 716.8 91.692083 716.8 0 625.107917 0 512 0 398.892083 91.692083 307.2 204.8 307.2 259.795183 307.2 309.727478 328.876798 346.518892 364.1524L649.294871 209.880333 695.783498 301.119401 400.53434 451.556361C406.42734 470.661679 409.6 490.960333 409.6 512 409.6 533.518231 406.281369 554.261353 400.128 573.745477L712.021559 732.663182 665.532932 823.90225 345.486623 660.83051Z" p-id="7287"></path>
  </symbol>
</svg>
